<?xml version="1.0" encoding="utf-8"?>
<!-- Generator: Adobe Illustrator 18.1.1, SVG Export Plug-In . SVG Version: 6.00 Build 0)  -->
<svg version="1.1" id="Layer_1" xmlns="http://www.w3.org/2000/svg" xmlns:xlink="http://www.w3.org/1999/xlink" x="0px" y="0px"
	 viewBox="0 0 150 150" enable-background="new 0 0 150 150" xml:space="preserve">
<rect fill="#FAE816" width="150" height="150"/>
<g>
	<g id="h2o" transform="translate(-0.399868, 76.218023)">
		<path id="path3081" fill="#010101" d="M36.5-40.7v-13.6h-9.1V-19h9.1v-14.5h13.2V-19h9.1v-35.3h-9.1v13.6H36.5"/>
		<path id="path3083" fill="#010101" d="M75.5-7.9l4-3.7c2.6-2.4,4.1-4.5,4.1-8.1c0-5.5-4.4-9.1-9.8-9.1c-6,0-9.7,4-9.9,9.8h7.2
			c-0.1-0.3-0.1-0.8-0.1-1.1c0-1.7,1-3.1,2.7-3.1c1.8,0,2.9,1.7,2.9,3.3c0,2.3-1.4,4.6-2.9,6.3L63.5-2.3h20.3v-5.6H75.5"/>
		<path id="path3085" fill="#010101" d="M104.2-55.5c-10.1,0-19.4,7.5-19.4,18.2c0,11.5,8.2,19.5,19.4,19.5s19.4-8,19.4-19.5
			C123.6-48,114.3-55.5,104.2-55.5 M104.2-46.6c5.5,0,10,4.4,10,9.3c0,6.1-4.5,10.6-10,10.6s-10-4.4-10-10.6
			C94.3-42.1,98.7-46.6,104.2-46.6"/>
	</g>
	<line fill="none" stroke="#000000" stroke-width="2" stroke-miterlimit="10" x1="27.1" y1="83.8" x2="123.2" y2="83.8"/>
	<rect x="27.2" y="91.2" fill="none" width="96.1" height="20"/>
	<g enable-background="new    ">
		<path d="M35.4,103.5L35.4,103.5l3.5-10.6h3.4l3.2,10.6h0l3.1-10.6h4.5l-5.3,16.5h-4.4l-2.9-9.5h0l-3.2,9.5H33L28,92.9h4.5
			L35.4,103.5z"/>
		<path d="M72.9,100.8c0,5.3-3.8,9.1-9.1,9.1c-5.3,0-9.1-3.8-9.1-9.1c0-5,4.4-8.5,9.1-8.5C68.5,92.4,72.9,95.9,72.9,100.8z
			 M59.1,100.9c0,2.8,2.1,4.9,4.6,4.9c2.6,0,4.6-2.1,4.6-4.9c0-2.3-2.1-4.3-4.6-4.3C61.2,96.5,59.1,98.6,59.1,100.9z"/>
		<path d="M89.9,109.4h-5.3l-4-6.3h0v6.3h-4.3V92.9h6.4c3.3,0,5.7,1.5,5.7,5.1c0,2.3-1.3,4.2-3.6,4.6L89.9,109.4z M80.5,100.3h0.4
			c1.4,0,3-0.3,3-2.1c0-1.8-1.6-2.1-3-2.1h-0.4V100.3z"/>
		<path d="M96.7,105.7h5.1v3.6h-9.4V92.9h4.3V105.7z"/>
		<path d="M104.5,92.9h6.1c4.6,0,8.4,3.6,8.4,8.2c0,4.6-3.8,8.2-8.4,8.2h-6.1V92.9z M108.8,105.7h1c2.6,0,4.7-1.4,4.7-4.6
			c0-2.9-1.9-4.6-4.7-4.6h-1V105.7z"/>
	</g>
	<rect x="26.7" y="117.5" fill="none" width="96.6" height="11.8"/>
	<g enable-background="new    ">
		<path d="M47,127.9v0.8h-6.7l4.8-4.4c0.4-0.4,0.7-0.8,0.7-1.3c0-0.9-0.9-1.6-2-1.6c-1.2,0-2,0.7-2.1,1.6h-1.1
			c0-1.4,1.4-2.5,3.2-2.5c1.7,0,3.2,1,3.2,2.4c0,0.6-0.2,1.2-0.8,1.7l-3.6,3.3H47z"/>
		<path d="M67.7,124.7c0,2-1.3,4.1-3.7,4.1c-2.3,0-3.7-2.2-3.7-4.1c0-1.6,1.1-4.2,3.7-4.2S67.7,123,67.7,124.7z M61.5,124.7
			c0,1.1,0.6,3.3,2.5,3.3c1.9,0,2.5-2.1,2.5-3.3c0-1.1-0.6-3.4-2.5-3.4S61.4,123.6,61.5,124.7z"/>
		<path d="M82,121.5l0.6-0.8h2.3v8h-1.1v-7.2H82z"/>
		<path d="M103.6,121.5l-0.7,1.7l0.6,0c2,0,3.4,1.2,3.4,2.8c0,1.7-1.7,2.9-3.8,2.9c-1.4,0-2.5-0.5-3.2-1.4l0.9-0.5
			c0.5,0.6,1.3,1.1,2.3,1.1c1.5,0,2.6-0.9,2.6-2.1c0-1.1-1.1-1.9-2.6-1.9c-0.7,0-1.4,0.2-2,0.5l1.5-3.8h4.1v0.8H103.6z"/>
	</g>
	<g enable-background="new    ">
		<path fill="none" stroke="#000000" stroke-width="0.7" stroke-miterlimit="10" d="M47,127.9v0.8h-6.7l4.8-4.4
			c0.4-0.4,0.7-0.8,0.7-1.3c0-0.9-0.9-1.6-2-1.6c-1.2,0-2,0.7-2.1,1.6h-1.1c0-1.4,1.4-2.5,3.2-2.5c1.7,0,3.2,1,3.2,2.4
			c0,0.6-0.2,1.2-0.8,1.7l-3.6,3.3H47z"/>
		<path fill="none" stroke="#000000" stroke-width="0.7" stroke-miterlimit="10" d="M67.7,124.7c0,2-1.3,4.1-3.7,4.1
			c-2.3,0-3.7-2.2-3.7-4.1c0-1.6,1.1-4.2,3.7-4.2S67.7,123,67.7,124.7z M61.5,124.7c0,1.1,0.6,3.3,2.5,3.3c1.9,0,2.5-2.1,2.5-3.3
			c0-1.1-0.6-3.4-2.5-3.4S61.4,123.6,61.5,124.7z"/>
		<path fill="none" stroke="#000000" stroke-width="0.7" stroke-miterlimit="10" d="M82,121.5l0.6-0.8h2.3v8h-1.1v-7.2H82z"/>
		<path fill="none" stroke="#000000" stroke-width="0.7" stroke-miterlimit="10" d="M103.6,121.5l-0.7,1.7l0.6,0
			c2,0,3.4,1.2,3.4,2.8c0,1.7-1.7,2.9-3.8,2.9c-1.4,0-2.5-0.5-3.2-1.4l0.9-0.5c0.5,0.6,1.3,1.1,2.3,1.1c1.5,0,2.6-0.9,2.6-2.1
			c0-1.1-1.1-1.9-2.6-1.9c-0.7,0-1.4,0.2-2,0.5l1.5-3.8h4.1v0.8H103.6z"/>
	</g>
</g>
</svg>
